<svg width="18" height="20" viewBox="0 0 18 20" fill="none" xmlns="http://www.w3.org/2000/svg">
<path d="M15.5455 8.29979V6.63983C15.5455 4.87884 14.8558 3.18997 13.6283 1.94476C12.4008 0.699552 10.736 0 9 0C7.26404 0 5.59918 0.699552 4.37166 1.94476C3.14415 3.18997 2.45455 4.87884 2.45455 6.63983V8.29979C2.43445 8.80605 2.31168 9.30267 2.09391 9.75865C1.87613 10.2146 1.56802 10.6201 1.18882 10.9499C0.507433 11.5389 0.0806595 12.3752 0 13.2797C0 15.3546 3.36436 16.5996 9 16.5996C14.6356 16.5996 18 15.3546 18 13.2797C17.9193 12.3752 17.4926 11.5389 16.8112 10.9499C16.432 10.6201 16.1239 10.2146 15.9061 9.75865C15.6883 9.30267 15.5655 8.80605 15.5455 8.29979Z" fill="#323232"/>
<path d="M6.66411 18.2595C6.82005 18.7642 7.13071 19.2051 7.55086 19.5181C7.97101 19.8312 8.47871 20 9.00002 20C9.52132 20 10.029 19.8312 10.4492 19.5181C10.8693 19.2051 11.18 18.7642 11.3359 18.2595C10.6045 18.3143 9.8272 18.3425 9.00002 18.3425C8.17283 18.3425 7.39556 18.316 6.66411 18.2595Z" fill="#323232"/>
</svg>
