<svg width="44" height="56" viewBox="0 0 44 56" fill="none" xmlns="http://www.w3.org/2000/svg">
<path d="M42.7434 14.4799C43.1066 14.8432 43.3125 15.3336 43.3125 15.8482V53.1875C43.3125 54.2592 42.4467 55.125 41.375 55.125H2.625C1.55332 55.125 0.6875 54.2592 0.6875 53.1875V2.8125C0.6875 1.74082 1.55332 0.875 2.625 0.875H28.3393C28.8539 0.875 29.3504 1.08086 29.7137 1.44414L42.7434 14.4799ZM38.8441 16.7383L27.4492 5.34336V16.7383H38.8441ZM29.3395 35.5841C28.4204 35.5538 27.4432 35.6247 26.3333 35.7633C24.8621 34.8557 23.8715 33.6091 23.1679 31.7775L23.2327 31.5123L23.3078 31.1987C23.5682 30.101 23.708 29.2999 23.7498 28.4922C23.7813 27.8825 23.7474 27.3201 23.639 26.7987C23.4392 25.6732 22.643 25.015 21.6397 24.9745C20.7043 24.9363 19.8445 25.4588 19.6247 26.2684C19.2669 27.5774 19.4764 29.2999 20.2351 32.2377C19.2687 34.5415 17.9918 37.2425 17.1351 38.7489C15.9913 39.3386 15.1007 39.8751 14.3523 40.4696C13.3654 41.2549 12.749 42.062 12.5795 42.9097C12.4972 43.3026 12.6213 43.8161 12.904 44.2369C13.2249 44.714 13.7081 45.024 14.2875 45.0688C15.7497 45.182 17.5468 43.6744 19.5309 40.2698C19.7301 40.2032 19.9408 40.133 20.1981 40.0458L20.9186 39.8024C21.3746 39.6486 21.7051 39.5384 22.0321 39.4325C23.4489 38.9711 24.5206 38.6799 25.4954 38.514C27.1895 39.421 29.1476 40.0155 30.4663 40.0155C31.5549 40.0155 32.2905 39.4512 32.5563 38.563C32.7895 37.7832 32.6048 36.8786 32.1035 36.3785C31.5852 35.8693 30.6322 35.6259 29.3395 35.5841ZM14.3245 43.3595V43.3377L14.3323 43.3171C14.4209 43.0881 14.5347 42.8696 14.6714 42.6657C14.9305 42.2673 15.2872 41.8483 15.7292 41.4021C15.9665 41.1629 16.2135 40.9298 16.5036 40.6682C16.5683 40.6101 16.9825 40.2414 17.06 40.1687L17.7363 39.539L17.2446 40.3219C16.4987 41.511 15.8242 42.3672 15.2466 42.9254C15.0341 43.1313 14.847 43.2826 14.6956 43.3801C14.6457 43.4135 14.5928 43.4423 14.5376 43.4661C14.5128 43.4764 14.491 43.4824 14.4692 43.4843C14.4462 43.4872 14.4228 43.4841 14.4014 43.4752C14.3786 43.4656 14.3591 43.4496 14.3454 43.429C14.3318 43.4084 14.3245 43.3842 14.3245 43.3595ZM21.9497 30.1434L21.8129 30.3855L21.7281 30.1204C21.5404 29.5252 21.4024 28.6285 21.3643 27.8196C21.3207 26.8993 21.3939 26.3471 21.6846 26.3471C22.0926 26.3471 22.2797 27.001 22.2943 27.9849C22.3076 28.8495 22.1713 29.7492 21.9491 30.1434H21.9497ZM21.598 33.6829L21.6906 33.4377L21.8171 33.6678C22.5249 34.9538 23.4434 36.0267 24.4534 36.7745L24.6713 36.9355L24.4055 36.99C23.4168 37.1946 22.4959 37.5022 21.2365 38.0102C21.3679 37.9569 19.9275 38.5467 19.563 38.6865L19.2451 38.8082L19.4146 38.5128C20.1624 37.211 20.8532 35.6477 21.5974 33.6829H21.598ZM31.1414 38.3002C30.6655 38.4879 29.641 38.3202 27.8373 37.5501L27.3796 37.3551L27.8761 37.3188C29.2868 37.214 30.2858 37.2915 30.8683 37.5046C31.1165 37.5955 31.2818 37.7099 31.3551 37.8407C31.3937 37.9026 31.4066 37.9771 31.3912 38.0484C31.3759 38.1197 31.3334 38.1822 31.2728 38.2227C31.2343 38.2566 31.1897 38.2829 31.1414 38.3002Z" fill="#00AEEF"/>
</svg>
