<svg width="48" height="52" viewBox="0 0 48 52" fill="none" xmlns="http://www.w3.org/2000/svg">
<path d="M45.1364 0.167969H2.86364C2.30307 0.167969 1.76545 0.415398 1.36907 0.855824C0.972686 1.29625 0.75 1.8936 0.75 2.51645V49.4861C0.75 50.109 0.972686 50.7064 1.36907 51.1468C1.76545 51.5872 2.30307 51.8346 2.86364 51.8346H45.1364C45.6969 51.8346 46.2345 51.5872 46.6309 51.1468C47.0273 50.7064 47.25 50.109 47.25 49.4861V2.51645C47.25 1.8936 47.0273 1.29625 46.6309 0.855824C46.2345 0.415398 45.6969 0.167969 45.1364 0.167969ZM18.7159 11.9104C19.343 11.9104 19.9559 12.117 20.4773 12.5041C20.9987 12.8912 21.4051 13.4413 21.645 14.085C21.885 14.7287 21.9478 15.437 21.8254 16.1204C21.7031 16.8037 21.4012 17.4314 20.9578 17.9241C20.5144 18.4167 19.9494 18.7522 19.3344 18.8882C18.7194 19.0241 18.082 18.9543 17.5026 18.6877C16.9233 18.4211 16.4281 17.9696 16.0798 17.3902C15.7314 16.8109 15.5455 16.1298 15.5455 15.4331C15.5455 14.4988 15.8795 13.6028 16.4741 12.9422C17.0686 12.2815 17.8751 11.9104 18.7159 11.9104ZM9.20455 37.7437L15.5455 26.0013L21.8864 33.0468L30.3409 18.9558L38.7955 37.7437H9.20455Z" fill="#00AEEF"/>
</svg>
