<svg width="44" height="56" viewBox="0 0 44 56" fill="none" xmlns="http://www.w3.org/2000/svg">
<path d="M42.7434 14.4799C43.1066 14.8432 43.3125 15.3336 43.3125 15.8482V53.1875C43.3125 54.2592 42.4467 55.125 41.375 55.125H2.625C1.55332 55.125 0.6875 54.2592 0.6875 53.1875V2.8125C0.6875 1.74082 1.55332 0.875 2.625 0.875H28.3393C28.8539 0.875 29.3504 1.08086 29.7137 1.44414L42.7434 14.4799ZM38.8441 16.7383L27.4492 5.34336V16.7383H38.8441ZM22 31.2756L25.1975 43.2033C25.2388 43.358 25.3301 43.4946 25.4571 43.5921C25.5841 43.6895 25.7397 43.7423 25.8998 43.7422H27.8234C27.9833 43.7424 28.1388 43.6898 28.2658 43.5925C28.3928 43.4953 28.4842 43.359 28.5257 43.2045L33.0286 26.4936C33.0449 26.432 33.0531 26.3684 33.0528 26.3047C33.0528 26.112 32.9763 25.9272 32.84 25.7909C32.7038 25.6547 32.519 25.5781 32.3263 25.5781H30.1726C30.0082 25.5781 29.8486 25.6338 29.7199 25.7362C29.5912 25.8385 29.5011 25.9816 29.4642 26.1418L26.6924 38.1967L23.6796 26.1285C23.6403 25.9713 23.5496 25.8318 23.4219 25.732C23.2942 25.6323 23.1368 25.5781 22.9748 25.5781H21.0252C20.8631 25.5782 20.7057 25.6324 20.578 25.7323C20.4503 25.8321 20.3596 25.9718 20.3204 26.1291L17.3137 38.1725L14.5225 26.1412C14.4854 25.9814 14.3954 25.8388 14.2669 25.7367C14.1385 25.6345 13.9793 25.5789 13.8153 25.5787H11.6725C11.6089 25.5787 11.5456 25.5871 11.4842 25.6036C11.2982 25.6536 11.1397 25.7755 11.0435 25.9424C10.9474 26.1093 10.9214 26.3076 10.9714 26.4936L15.4621 43.2045C15.5037 43.3588 15.5949 43.495 15.7216 43.5922C15.8483 43.6894 16.0036 43.7421 16.1633 43.7422H18.1002C18.2602 43.7422 18.4156 43.6893 18.5425 43.5919C18.6694 43.4944 18.7606 43.3579 18.8019 43.2033L21.9994 31.2756H22Z" fill="#00AEEF"/>
</svg>
