<svg width="44" height="56" viewBox="0 0 44 56" fill="none" xmlns="http://www.w3.org/2000/svg">
<path d="M42.7434 14.4799C43.1066 14.8432 43.3125 15.3336 43.3125 15.8482V53.1875C43.3125 54.2592 42.4467 55.125 41.375 55.125H2.625C1.55332 55.125 0.6875 54.2592 0.6875 53.1875V2.8125C0.6875 1.74082 1.55332 0.875 2.625 0.875H28.3393C28.8539 0.875 29.3504 1.08086 29.7137 1.44414L42.7434 14.4799ZM38.8441 16.7383L27.4492 5.34336V16.7383H38.8441ZM15.3398 30.2402C15.3398 30.5672 15.6062 30.8154 15.9332 30.8154H17.8949C18.2219 30.8154 18.4883 30.5611 18.4883 30.2463C18.4883 28.5389 20.0504 27.1221 22 27.1221C23.9496 27.1221 25.5117 28.5389 25.5117 30.2402C25.5117 31.7721 24.2402 33.098 22.5268 33.3221C21.3582 33.4916 20.4379 34.5512 20.4258 35.75V37.6875C20.4258 38.0205 20.6982 38.293 21.0312 38.293H22.9688C23.3018 38.293 23.5742 38.0205 23.5742 37.6875V36.9488C23.5742 36.5855 23.8164 36.2525 24.1615 36.1436C26.8619 35.2717 28.7025 32.874 28.6602 30.1555C28.6117 26.7951 25.6812 24.0523 22.0908 24.0039C18.3732 23.9615 15.3398 26.7648 15.3398 30.2402ZM22 43.9844C22.5139 43.9844 23.0067 43.7802 23.37 43.4169C23.7334 43.0535 23.9375 42.5607 23.9375 42.0469C23.9375 41.533 23.7334 41.0402 23.37 40.6769C23.0067 40.3135 22.5139 40.1094 22 40.1094C21.4861 40.1094 20.9933 40.3135 20.63 40.6769C20.2666 41.0402 20.0625 41.533 20.0625 42.0469C20.0625 42.5607 20.2666 43.0535 20.63 43.4169C20.9933 43.7802 21.4861 43.9844 22 43.9844Z" fill="#00AEEF"/>
</svg>
