<svg width="44" height="56" viewBox="0 0 44 56" fill="none" xmlns="http://www.w3.org/2000/svg">
<path d="M42.7434 14.4799C43.1066 14.8432 43.3125 15.3336 43.3125 15.8482V53.1875C43.3125 54.2592 42.4467 55.125 41.375 55.125H2.625C1.55332 55.125 0.6875 54.2592 0.6875 53.1875V2.8125C0.6875 1.74082 1.55332 0.875 2.625 0.875H28.3393C28.8539 0.875 29.3504 1.08086 29.7137 1.44414L42.7434 14.4799ZM38.8441 16.7383L27.4492 5.34336V16.7383H38.8441ZM25.835 25.9317L22.1284 32.1257L18.3854 25.9293C18.3206 25.8223 18.2294 25.7338 18.1205 25.6724C18.0115 25.611 17.8886 25.5787 17.7635 25.5787H15.4361C15.299 25.5787 15.1646 25.6176 15.0486 25.6907C14.9678 25.7416 14.8979 25.8079 14.8427 25.8859C14.7876 25.9638 14.7484 26.0519 14.7273 26.145C14.7062 26.2381 14.7037 26.3345 14.7198 26.4286C14.736 26.5227 14.7706 26.6127 14.8216 26.6934L19.807 34.5899L14.7544 42.6293C14.6815 42.7452 14.6429 42.8793 14.6429 43.0162C14.6429 43.2089 14.7195 43.3937 14.8558 43.53C14.992 43.6662 15.1768 43.7428 15.3695 43.7428H17.456C17.5799 43.7428 17.7017 43.711 17.8099 43.6506C17.9181 43.5902 18.0091 43.5031 18.0741 43.3977L21.8704 37.254L25.6425 43.3965C25.7075 43.5023 25.7986 43.5898 25.907 43.6504C26.0155 43.711 26.1377 43.7428 26.2619 43.7428H28.5312C28.6703 43.7428 28.8065 43.7029 28.9235 43.6278C29.0038 43.5762 29.0732 43.5094 29.1277 43.4311C29.1822 43.3527 29.2207 43.2644 29.241 43.1712C29.2614 43.078 29.2632 42.9817 29.2463 42.8878C29.2294 42.7939 29.1942 42.7042 29.1427 42.6239L24.0671 34.7195L29.2317 26.6988C29.3071 26.5814 29.347 26.4448 29.3468 26.3053C29.3468 26.1126 29.2702 25.9278 29.134 25.7915C28.9977 25.6553 28.8129 25.5787 28.6202 25.5787H26.4587C26.3331 25.5788 26.2097 25.6114 26.1005 25.6734C25.9914 25.7354 25.9001 25.8246 25.8356 25.9323L25.835 25.9317Z" fill="#00AEEF"/>
</svg>
